<svg width="230" height="75" viewBox="0 0 230 75" fill="none" xmlns="http://www.w3.org/2000/svg">
<g clip-path="url(#clip0_3346_17501)">
<path d="M114.012 33.6675V35.7884H118.897V16.8494H114.012V27.0733C114.012 28.6385 113.633 29.8129 112.876 30.5966C112.118 31.3802 111.109 31.7715 109.847 31.7705C108.711 31.7705 107.802 31.436 107.121 30.7672C106.439 30.0983 106.098 29.1326 106.097 27.87V16.8525H95.7087V16.6631C95.7087 14.3153 97.0469 13.2421 99.7234 13.4435V8.74784C96.7704 8.5715 94.5489 9.17723 93.0588 10.565C91.5687 11.9529 90.8237 13.9876 90.8237 16.6694V16.8587H88.0939V21.5544H90.8205V35.7977H95.7087V21.5544H101.215V28.4867C101.215 30.9357 101.893 32.8546 103.25 34.2435C104.606 35.6324 106.317 36.3263 108.381 36.3252C110.949 36.32 112.826 35.4341 114.012 33.6675Z" fill="#222222"/>
<path d="M127.517 25.5629C127.517 23.9977 127.896 22.8238 128.653 22.0411C129.411 21.2585 130.421 20.8672 131.683 20.8672C132.82 20.8672 133.729 21.2017 134.41 21.8705C135.091 22.5394 135.432 23.5051 135.432 24.7677V35.7884H140.317V24.162C140.317 21.713 139.642 19.794 138.292 18.4052C136.941 17.0163 135.231 16.3219 133.159 16.3219C130.585 16.3219 128.707 17.2057 127.525 18.9733V16.8525H122.63V35.7915H127.515L127.517 25.5629Z" fill="#222222"/>
<path d="M158.16 33.5532V35.7884H163.047V9.27845H158.16V19.086C156.721 17.2443 154.677 16.3229 152.026 16.3219C149.475 16.3219 147.297 17.2876 145.493 19.2191C143.689 21.1505 142.786 23.5177 142.785 26.3204C142.785 29.1221 143.688 31.4887 145.493 33.4202C147.298 35.3517 149.476 36.3174 152.026 36.3174C154.676 36.3174 156.72 35.396 158.16 33.5532ZM152.936 31.6593C151.421 31.6593 150.164 31.1606 149.167 30.163C148.169 29.1654 147.671 27.8846 147.674 26.3204C147.674 24.7552 148.172 23.4738 149.17 22.4763C150.167 21.4787 151.424 20.9799 152.939 20.9799C154.453 20.9799 155.705 21.4787 156.695 22.4763C157.686 23.4738 158.178 24.7552 158.171 26.3204C158.171 27.8856 157.679 29.1665 156.695 30.163C155.711 31.1595 154.457 31.6583 152.933 31.6593H152.936Z" fill="#222222"/>
<path d="M171.696 16.8525H166.811V35.7884H171.696V16.8525Z" fill="#222222"/>
<path d="M169.234 14.5798C169.633 14.5856 170.029 14.5097 170.397 14.3569C170.765 14.204 171.098 13.9773 171.375 13.6908C171.659 13.4195 171.884 13.093 172.037 12.7316C172.19 12.3701 172.267 11.9812 172.265 11.5887C172.266 11.1936 172.188 10.8022 172.036 10.4378C171.883 10.0735 171.658 9.74357 171.375 9.46784C171.101 9.17631 170.769 8.94494 170.4 8.78841C170.032 8.63187 169.635 8.55357 169.234 8.55846C168.84 8.55626 168.45 8.63596 168.088 8.79251C167.727 8.94905 167.402 9.17902 167.134 9.46784C166.85 9.74327 166.625 10.0731 166.472 10.4375C166.319 10.8019 166.241 11.1935 166.243 11.5887C166.256 12.3781 166.575 13.1316 167.133 13.6899C167.691 14.2482 168.445 14.5673 169.234 14.5798Z" fill="#222222"/>
<path d="M185.993 16.3219C183.417 16.3219 181.538 17.2057 180.358 18.9733V16.8525H175.473V35.7915H180.358V25.5629C180.358 23.9977 180.737 22.8238 181.495 22.0411C182.252 21.2585 183.262 20.8672 184.523 20.8672C185.66 20.8672 186.568 21.2017 187.25 21.8705C187.931 22.5394 188.272 23.5051 188.273 24.7677V35.7884H193.158V24.162C193.158 21.713 192.48 19.794 191.124 18.4052C189.767 17.0163 188.057 16.3219 185.993 16.3219Z" fill="#222222"/>
<path d="M215.892 16.8525H211.121V19.2003C209.681 17.2814 207.661 16.3219 205.06 16.3219C202.41 16.3219 200.176 17.2688 198.358 19.1627C196.54 21.0566 195.631 23.3413 195.631 26.0168C195.631 28.7183 196.534 31.0098 198.339 32.8912C200.144 34.7725 202.385 35.7117 205.06 35.7085C207.662 35.7085 209.682 34.7491 211.121 32.8301V34.8758C211.121 36.3638 210.679 37.5117 209.795 38.3193C208.911 39.1269 207.699 39.5308 206.159 39.5308C203.811 39.5308 202.157 38.6469 201.197 36.8793L197.032 39.2647C197.841 40.7546 199.091 41.9576 200.61 42.7081C202.163 43.4907 203.962 43.882 206.007 43.882C208.734 43.882 211.063 43.112 212.994 41.5718C214.926 40.0316 215.892 37.7976 215.892 34.8696V16.8525ZM209.631 29.7467C208.632 30.7181 207.363 31.2044 205.824 31.2054C204.285 31.2065 203.017 30.7202 202.019 29.7467C201.02 28.7762 200.522 27.5329 200.523 26.0168C200.523 24.5267 201.022 23.2959 202.019 22.3245C203.017 21.353 204.285 20.8672 205.824 20.8672C207.364 20.8672 208.633 21.353 209.631 22.3245C210.628 23.2959 211.127 24.5267 211.127 26.0168C211.123 27.5361 210.622 28.7794 209.624 29.7467H209.631Z" fill="#222222"/>
<path d="M98.9518 57.072L95.5631 56.1799C94.5452 55.9297 93.5746 55.5158 92.6894 54.9543C92.3185 54.7311 92.0134 54.4137 91.805 54.0343C91.5966 53.6549 91.4924 53.2271 91.503 52.7943C91.4902 52.2937 91.6032 51.7979 91.8315 51.3522C92.0598 50.9065 92.3962 50.5252 92.8099 50.243C93.6802 49.6107 94.7591 49.294 96.0468 49.293C97.077 49.2806 98.0929 49.5351 98.9956 50.0317C99.8583 50.5008 100.529 51.2581 100.89 52.1714L102.481 51.2636C101.957 50.1096 101.091 49.1442 100 48.4978C98.8767 47.8175 97.5572 47.4768 96.0421 47.4758C94.1482 47.4758 92.6017 47.9933 91.4028 49.0284C90.2038 50.0636 89.6044 51.3387 89.6044 52.8538C89.6044 54.1175 89.9957 55.1275 90.7783 55.8841C91.5834 56.6538 92.5756 57.1998 93.6567 57.468L97.0454 58.3602C98.0674 58.6103 99.0361 59.0424 99.905 59.6359C100.274 59.8782 100.575 60.2103 100.78 60.601C100.986 60.9917 101.089 61.4281 101.079 61.8694C101.079 63.0047 100.618 63.8812 99.6968 64.4989C98.7754 65.1167 97.6078 65.4261 96.1939 65.4271C94.7789 65.4271 93.5863 65.1302 92.6158 64.5365C91.6796 63.9889 90.973 63.1211 90.6265 62.0932L89.0033 63.0433C89.4823 64.3069 90.3468 65.3233 91.5969 66.0923C92.847 66.8614 94.3809 67.2464 96.1986 67.2474C98.2177 67.2474 99.8523 66.7424 101.102 65.7323C102.352 64.7223 102.979 63.4346 102.981 61.8694C102.981 60.5505 102.593 59.4965 101.819 58.7077C101.032 57.9086 100.04 57.3425 98.9518 57.072Z" fill="#222222"/>
<path d="M115.108 47.4758C112.33 47.4758 109.976 48.429 108.044 50.3354C106.113 52.2418 105.147 54.5834 105.147 57.36C105.147 60.1388 106.113 62.4804 108.044 64.3847C109.976 66.289 112.33 67.2422 115.108 67.2443C117.857 67.2443 120.199 66.2911 122.132 64.3847C124.066 62.4783 125.032 60.1367 125.03 57.36C125.03 54.5834 124.064 52.2418 122.132 50.3354C120.201 48.429 117.859 47.4758 115.108 47.4758ZM120.788 63.0793C119.248 64.6445 117.354 65.4271 115.108 65.4271C112.861 65.4271 110.961 64.6445 109.407 63.0793C107.855 61.5141 107.078 59.6077 107.078 57.36C107.078 55.1124 107.855 53.2065 109.407 51.6423C110.96 50.0771 112.86 49.2945 115.108 49.2945C117.355 49.2945 119.249 50.0771 120.788 51.6423C122.328 53.2075 123.098 55.1134 123.098 57.36C123.098 59.6066 122.328 61.5131 120.788 63.0793Z" fill="#222222"/>
<path d="M141.413 64.3659C140.178 65.0828 138.771 65.4496 137.343 65.4271C135.073 65.4271 133.167 64.6508 131.625 63.0981C130.084 61.5454 129.314 59.6327 129.315 57.36C129.315 55.0874 130.085 53.1747 131.625 51.622C133.166 50.0693 135.072 49.293 137.343 49.293C138.771 49.2711 140.178 49.638 141.413 50.3542C142.57 51.0147 143.49 52.0214 144.045 53.2326L145.598 52.3232C144.916 50.8308 143.78 49.5918 142.352 48.7827C140.831 47.9016 139.1 47.4499 137.343 47.4758C134.489 47.4758 132.116 48.4227 130.225 50.3166C128.333 52.2105 127.386 54.5583 127.384 57.36C127.384 60.1638 128.331 62.5117 130.225 64.4035C132.119 66.2953 134.491 67.2422 137.343 67.2443C139.103 67.2665 140.836 66.8151 142.361 65.9374C143.808 65.1247 144.986 63.9072 145.751 62.4344L144.161 61.4875C143.539 62.6898 142.585 63.6887 141.413 64.3659Z" fill="#222222"/>
<path d="M150.732 47.8921H148.838V66.828H150.732V47.8921Z" fill="#222222"/>
<path d="M149.785 40.3181C149.588 40.3169 149.393 40.3548 149.211 40.4294C149.029 40.5041 148.863 40.6142 148.724 40.7532C148.579 40.8855 148.464 41.0467 148.386 41.2262C148.308 41.4058 148.268 41.5998 148.27 41.7956C148.266 41.9972 148.304 42.1974 148.382 42.3832C148.46 42.569 148.577 42.7363 148.724 42.8741C149.006 43.1538 149.387 43.3108 149.784 43.3108C150.181 43.3108 150.563 43.1538 150.845 42.8741C150.992 42.7366 151.109 42.5694 151.188 42.3836C151.266 42.1977 151.305 41.9973 151.3 41.7956C151.302 41.5996 151.262 41.4055 151.184 41.2259C151.105 41.0462 150.99 40.8852 150.845 40.7532C150.706 40.6141 150.54 40.504 150.359 40.4293C150.177 40.3546 149.982 40.3168 149.785 40.3181Z" fill="#222222"/>
<path d="M164.074 47.4758C161.196 47.4758 158.841 48.4149 157.01 50.2931C155.179 52.1714 154.264 54.5255 154.265 57.3553C154.265 60.2332 155.199 62.6004 157.068 64.4567C158.937 66.313 161.323 67.2407 164.226 67.2396C166.067 67.2396 167.708 66.8546 169.148 66.0845C170.527 65.3697 171.681 64.2859 172.481 62.9541L170.814 61.9696C170.21 63.0311 169.317 63.8995 168.239 64.4739C167.102 65.1 165.777 65.4156 164.263 65.4209C162.091 65.4209 160.265 64.7708 158.785 63.4706C157.305 62.1704 156.455 60.4628 156.234 58.3477H173.39C173.39 58.2475 173.39 58.0957 173.409 57.8938C173.427 57.6919 173.427 57.54 173.427 57.4399C173.427 54.7383 172.563 52.4025 170.834 50.4324C169.105 48.4624 166.852 47.4768 164.074 47.4758ZM156.234 56.4898C156.435 54.3684 157.256 52.6389 158.696 51.3011C160.136 49.9634 161.928 49.294 164.074 49.293C165.918 49.2651 167.702 49.9503 169.053 51.2056C170.452 52.4818 171.256 54.2432 171.465 56.4898H156.234Z" fill="#222222"/>
<path d="M179.953 42.5907L178.02 43.1652V47.8921H173.855V49.7484H178.02V62.0557C178.02 64.151 178.646 65.5649 179.898 66.2974C181.15 67.0299 183.05 67.2068 185.599 66.828V65.1235C184.542 65.2441 183.478 65.276 182.416 65.2189C181.582 65.1563 180.963 64.8845 180.562 64.4035C180.16 63.9224 179.958 63.1398 179.956 62.0557V49.7484H185.591V47.8921H179.956L179.953 42.5907Z" fill="#222222"/>
<path d="M189.483 40.3181C189.287 40.3168 189.092 40.3546 188.91 40.4293C188.728 40.504 188.563 40.6141 188.424 40.7532C188.279 40.8852 188.163 41.0462 188.085 41.2259C188.006 41.4055 187.967 41.5996 187.968 41.7956C187.964 41.9973 188.002 42.1977 188.081 42.3836C188.159 42.5694 188.276 42.7366 188.424 42.8741C188.706 43.1538 189.087 43.3108 189.484 43.3108C189.881 43.3108 190.263 43.1538 190.545 42.8741C190.692 42.7363 190.808 42.569 190.886 42.3832C190.965 42.1974 191.003 41.9972 190.998 41.7956C191 41.5998 190.96 41.4058 190.882 41.2262C190.804 41.0467 190.689 40.8855 190.545 40.7532C190.405 40.6142 190.24 40.5041 190.057 40.4294C189.875 40.3548 189.68 40.3169 189.483 40.3181Z" fill="#222222"/>
<path d="M190.43 47.8921H188.536V66.828H190.43V47.8921Z" fill="#222222"/>
<path d="M203.772 47.4758C200.893 47.4758 198.539 48.4149 196.71 50.2931C194.881 52.1714 193.966 54.5255 193.965 57.3553C193.965 60.2332 194.898 62.6004 196.766 64.4567C198.634 66.313 201.02 67.2407 203.924 67.2396C205.766 67.2396 207.407 66.8546 208.847 66.0845C210.226 65.3701 211.38 64.2863 212.179 62.9541L210.513 61.9696C209.909 63.0308 209.016 63.899 207.939 64.4739C206.802 65.1 205.477 65.4156 203.962 65.4209C201.791 65.4209 199.965 64.7708 198.483 63.4706C197.002 62.1704 196.152 60.4628 195.934 58.3477H213.088C213.088 58.2475 213.088 58.0957 213.107 57.8938C213.126 57.6919 213.126 57.54 213.126 57.4399C213.126 54.7383 212.261 52.4025 210.532 50.4324C208.803 48.4624 206.55 47.4768 203.772 47.4758ZM195.934 56.4898C196.134 54.3684 196.954 52.6389 198.394 51.3011C199.834 49.9634 201.627 49.294 203.772 49.293C205.617 49.2649 207.401 49.9501 208.753 51.2056C210.154 52.4808 210.955 54.2421 211.157 56.4898H195.934Z" fill="#222222"/>
<path d="M227.848 58.7046C227.061 57.9077 226.069 57.3429 224.982 57.072L221.594 56.1799C220.576 55.9297 219.606 55.5158 218.721 54.9543C218.35 54.7312 218.045 54.4138 217.836 54.0344C217.628 53.655 217.523 53.2272 217.533 52.7943C217.521 52.2938 217.634 51.7981 217.862 51.3524C218.091 50.9068 218.427 50.5254 218.84 50.243C219.712 49.6107 220.791 49.294 222.079 49.293C223.111 49.2802 224.128 49.5347 225.032 50.0317C225.895 50.5008 226.565 51.2581 226.926 52.1714L228.516 51.2636C227.992 50.1092 227.126 49.1438 226.036 48.4978C224.912 47.8175 223.593 47.4768 222.079 47.4758C220.185 47.4758 218.638 47.9933 217.439 49.0284C216.241 50.0636 215.641 51.3387 215.641 52.8538C215.641 54.1175 216.032 55.1275 216.815 55.8841C217.619 56.6541 218.611 57.2002 219.692 57.468L223.081 58.3602C224.103 58.6102 225.072 59.0423 225.942 59.6359C226.311 59.8782 226.612 60.2103 226.817 60.601C227.023 60.9917 227.125 61.4281 227.116 61.8694C227.116 63.0047 226.655 63.8812 225.734 64.4989C224.812 65.1167 223.645 65.4261 222.231 65.4271C220.816 65.4271 219.622 65.1302 218.651 64.5365C217.716 63.9883 217.01 63.1206 216.663 62.0932L215.035 63.0402C215.514 64.3038 216.379 65.3202 217.629 66.0892C218.879 66.8582 220.413 67.2433 222.231 67.2443C224.25 67.2443 225.884 66.7393 227.134 65.7292C228.384 64.7191 229.011 63.4315 229.013 61.8663C229.011 60.5473 228.622 59.4934 227.848 58.7046Z" fill="#222222"/>
</g>
<path d="M6.43413 21.9654L21.9664 37.4977L6.43307 53.0311C2.31383 48.9113 -0.000198491 43.3239 1.27704e-08 37.498C0.000198517 31.6721 2.31461 26.0849 6.43413 21.9654Z" fill="#5203EA"/>
<path d="M53.031 6.43307L37.4976 21.9664L21.9653 6.43413C26.0849 2.31461 31.6721 0.000198878 37.498 1.28166e-08C43.3238 -0.000198853 48.9112 2.31383 53.031 6.43307Z" fill="#FFDE0F"/>
<path d="M21.9656 6.43303L6.43219 21.9664L21.9656 37.4998L37.4989 21.9664L21.9656 6.43303Z" fill="#FFB50D"/>
<path d="M68.5651 53.0311L53.0328 37.4988L68.5662 21.9654C72.6854 26.0852 74.9995 31.6726 74.9993 37.4985C74.9991 43.3243 72.6847 48.9116 68.5651 53.0311Z" fill="#08C0A6"/>
<path d="M21.9656 68.5661L37.499 53.0327L53.0313 68.565C48.9118 72.6845 43.3246 74.9989 37.4987 74.9991C31.6728 74.9993 26.0854 72.6853 21.9656 68.5661Z" fill="#2C50FF"/>
<path d="M53.0312 68.5649L68.5646 53.0315L53.0312 37.4982L37.4979 53.0315L53.0312 68.5649Z" fill="#3E7EFF"/>
<path d="M6.4328 53.0324L21.9662 37.4991L37.4995 53.0324C33.3798 57.1521 27.7923 59.4666 21.9662 59.4666C16.14 59.4666 10.5525 57.1522 6.4328 53.0324Z" fill="#3B03A8"/>
<path d="M68.5661 21.9654L53.0328 37.4988L37.4994 21.9654C41.6191 17.8457 47.2066 15.5313 53.0328 15.5313C58.8589 15.5313 64.4464 17.8457 68.5661 21.9654Z" fill="#27E4CD"/>
<path d="M37.4991 53.0314L21.9666 37.4989L37.4991 21.9664V53.0314Z" fill="#27E4CD"/>
<path d="M53.0316 37.4989L37.4991 53.0314V21.9664L53.0316 37.4989Z" fill="#5203EA"/>
<defs>
<clipPath id="clip0_3346_17501">
<rect width="142.174" height="60" fill="white" transform="translate(87 8)"/>
</clipPath>
</defs>
</svg>
